# xmcd
#
# Track frame offsets: 
#        150
#        11050
#        23762
#        34508
#        43756
#        52363
#        60491
#        71910
#        84750
#        98915
#        107783
#        119801
#        130150
#        138865
#        152216
#        162684
#        174691
#        185300
#        195676
#        205699
#        219246
#        229573
#        241360
#        252255
#        264876
#
# Disc length: 3654 seconds
#
# Revision: 3
# Processed by: cddbd v1.5.2PL0 Copyright (c) Steve Scherf et al.
# Submitted via: ExactAudioCopy v1.0b3
#
DISCID=620e4419
DTITLE=Various Artist - The Aladdin Story Disc 1
DYEAR=2012
DGENRE=Blues
TTITLE0=Shirley and Lee - Let the Good Times Roll
TTITLE1=Gene and Eunice - Ko Ko Mo (I Love You So)
TTITLE2=Thurston Harris and the Sharps - Little Bitty Pretty One
TTITLE3=Bobby Wall - Baby It's Too Much
TTITLE4=Marvn and Johnny - Smack Smack
TTITLE5=Aggie Dukes - John John
TTITLE6=Jeanette and Decky - Crazy With You
TTITLE7=Amos Milburn - Chicken Shack Boogie
TTITLE8=The Five Keys - The Glory of Love
TTITLE9=The Chestnuts - Wiggle Wiggle
TTITLE10=Lightnin' Hopkins - Shotgun Blues
TTITLE11=The Crystals - I Love My Baby
TTITLE12=The Daybreakers - Up, Up and Away
TTITLE13=The Sharps - Our Love Is Here to Stay
TTITLE14=Flip Sloan - Little Girl in the Cabin
TTITLE15=The Lovers - Tell Me
TTITLE16=The Heart Throbs - So Glad
TTITLE17=Jesse Belvin - Let Me Dream
TTITLE18=John and Jackie - Little Girl
TTITLE19=Lowell Fulson - Don't Leave Me Baby
TTITLE20=Gene and Eunice - This Is My Story
TTITLE21=Louis Jordan - Dad Gum Ya Hide Boy
TTITLE22=The Aladsins - Remember
TTITLE23=Floyd Dixon - Sad Journey Blues
TTITLE24=The Squires - Dreamy Eyes
EXTD=
EXTT0=
EXTT1=
EXTT2=
EXTT3=
EXTT4=
EXTT5=
EXTT6=
EXTT7=
EXTT8=
EXTT9=
EXTT10=
EXTT11=
EXTT12=
EXTT13=
EXTT14=
EXTT15=
EXTT16=
EXTT17=
EXTT18=
EXTT19=
EXTT20=
EXTT21=
EXTT22=
EXTT23=
EXTT24=
PLAYORDER=
